<svg xmlns="http://www.w3.org/2000/svg" viewBox="0 0 32 32">
  <rect width="32" height="32" rx="7" fill="#0b0f19"/>
  <path d="M11 8c-2 0-3 1-3 3v3c0 1.2-.6 2-2 2v0c1.4 0 2 .8 2 2v3c0 2 1 3 3 3" fill="none" stroke="#7cc4ff" stroke-width="1.75" stroke-linecap="round" stroke-linejoin="round"/>
  <path d="M21 8c2 0 3 1 3 3v3c0 1.2.6 2 2 2v0c-1.4 0-2 .8-2 2v3c0 2-1 3-3 3" fill="none" stroke="#7cc4ff" stroke-width="1.75" stroke-linecap="round" stroke-linejoin="round"/>
  <circle cx="16" cy="16" r="1.75" fill="#7cc4ff"/>
</svg>
